<svg width="119" height="22" viewBox="0 0 119 22" fill="none" xmlns="http://www.w3.org/2000/svg">
<path d="M107.297 14.6227C107.434 15.9329 107.85 16.94 108.544 17.644C109.248 18.3382 110.196 18.6853 111.389 18.6853C112.25 18.6853 112.998 18.4947 113.633 18.1133C114.269 17.7222 114.758 17.16 115.1 16.4267L118.591 17.4827C118.19 18.4213 117.632 19.2329 116.919 19.9173C116.215 20.592 115.403 21.1102 114.484 21.472C113.575 21.824 112.611 22 111.595 22C110.011 22 108.607 21.6529 107.385 20.9587C106.163 20.2645 105.21 19.2965 104.525 18.0547C103.851 16.8129 103.513 15.4 103.513 13.816C103.513 12.1049 103.841 10.6089 104.496 9.32801C105.161 8.03735 106.09 7.04001 107.283 6.33601C108.475 5.63201 109.844 5.28001 111.389 5.28001C112.915 5.28001 114.235 5.61735 115.349 6.29201C116.464 6.96668 117.319 7.92979 117.916 9.18134C118.512 10.4231 118.811 11.8849 118.811 13.5667C118.811 13.8991 118.796 14.2511 118.766 14.6227H107.297ZM111.536 8.37468C109.189 8.37468 107.806 9.56757 107.385 11.9533H115.188C115.031 10.7213 114.655 9.8169 114.059 9.24001C113.472 8.66312 112.631 8.37468 111.536 8.37468Z" fill="white"/>
<path d="M98.3136 8.49199V14.8867V15.7227C98.3136 16.2311 98.3332 16.6418 98.3723 16.9546C98.4114 17.2675 98.4994 17.5266 98.6363 17.732C98.8612 18.1035 99.174 18.3675 99.5749 18.524C99.9856 18.6804 100.489 18.7586 101.086 18.7586C101.633 18.7586 102.259 18.7049 102.963 18.5973V21.56C102.005 21.7458 101.11 21.8386 100.279 21.8386C99.1447 21.8386 98.1523 21.6626 97.3016 21.3106C96.4509 20.9489 95.8154 20.3818 95.3949 19.6093C95.1407 19.1498 94.9745 18.6755 94.8963 18.1867C94.8181 17.6978 94.7789 17.116 94.7789 16.4413L94.7936 15.092V8.49199H91.9189V5.71999H94.7936V1.31999H98.3136V5.71999H102.963V8.49199H98.3136Z" fill="white"/>
<path d="M83.7154 22C82.1509 22 80.7722 21.648 79.5794 20.944C78.3865 20.2302 77.4625 19.2427 76.8074 17.9813C76.162 16.7102 75.8394 15.2631 75.8394 13.64C75.8394 11.9973 76.1669 10.5453 76.822 9.28401C77.4869 8.0129 78.4158 7.03023 79.6087 6.33601C80.8016 5.63201 82.1705 5.28001 83.7154 5.28001C85.2896 5.28001 86.6731 5.6369 87.866 6.35068C89.0589 7.05468 89.9829 8.04223 90.638 9.31334C91.2931 10.5747 91.6207 12.0169 91.6207 13.64C91.6207 15.2729 91.2882 16.7249 90.6233 17.996C89.9682 19.2573 89.0393 20.24 87.8367 20.944C86.6438 21.648 85.27 22 83.7154 22ZM83.7154 18.6853C85.0745 18.6853 86.106 18.2307 86.81 17.3213C87.5238 16.412 87.8807 15.1849 87.8807 13.64C87.8807 12.0756 87.5238 10.8436 86.81 9.94401C86.106 9.04446 85.0745 8.59468 83.7154 8.59468C82.3367 8.59468 81.3002 9.04935 80.606 9.95868C79.9216 10.8582 79.5794 12.0853 79.5794 13.64C79.5794 15.2142 79.9314 16.4511 80.6354 17.3507C81.3491 18.2405 82.3758 18.6853 83.7154 18.6853Z" fill="white"/>
<path d="M60.4166 21.56H56.8379V0.440002H60.4166L70.2139 15.3267V0.440002H73.7925V21.56H70.2139L60.4166 6.67333V21.56Z" fill="white"/>
<path d="M53.6177 3.31467H50.083V0.0733337H53.6177V3.31467ZM53.6177 21.56H50.083V5.72H53.6177V21.56Z" fill="white"/>
<path d="M43.9546 6.556C44.3946 6.25289 44.8932 6.028 45.4506 5.88133C46.0079 5.72489 46.5799 5.64667 47.1666 5.64667C47.4697 5.64667 47.8021 5.67111 48.1639 5.72V9.02C47.7924 8.92222 47.411 8.87333 47.0199 8.87333C46.2084 8.87333 45.4995 9.04933 44.8932 9.40133C44.1892 9.78266 43.6612 10.3253 43.3092 11.0293C42.967 11.7333 42.7959 12.5596 42.7959 13.508V21.56H39.2466V5.72H42.3706V8.25733C42.8008 7.51422 43.3288 6.94711 43.9546 6.556Z" fill="white"/>
<path d="M33.4126 6.556C33.8526 6.25289 34.3513 6.028 34.9086 5.88133C35.4659 5.72489 36.0379 5.64667 36.6246 5.64667C36.9277 5.64667 37.2601 5.67111 37.6219 5.72V9.02C37.2504 8.92222 36.869 8.87333 36.4779 8.87333C35.6664 8.87333 34.9575 9.04933 34.3513 9.40133C33.6473 9.78266 33.1193 10.3253 32.7673 11.0293C32.425 11.7333 32.2539 12.5596 32.2539 13.508V21.56H28.7046V5.72H31.8286V8.25733C32.2588 7.51422 32.7868 6.94711 33.4126 6.556Z" fill="white"/>
<path d="M25.4844 3.31467H21.9497V0.0733337H25.4844V3.31467ZM25.4844 21.56H21.9497V5.72H25.4844V21.56Z" fill="white"/>
<path d="M10.1053 22C8.03244 22 6.23333 21.5453 4.708 20.636C3.19244 19.7169 2.02889 18.4262 1.21733 16.764C0.405778 15.1018 0 13.1804 0 11C0 8.81955 0.405778 6.89822 1.21733 5.236C2.02889 3.57378 3.19244 2.288 4.708 1.37867C6.23333 0.459556 8.03244 0 10.1053 0C11.6991 0 13.1315 0.273778 14.4027 0.821333C15.6835 1.35911 16.7591 2.13644 17.6293 3.15333C18.5093 4.16044 19.1693 5.35822 19.6093 6.74666L16.0453 7.72933C15.6249 6.32133 14.916 5.236 13.9187 4.47333C12.9213 3.71066 11.6502 3.32933 10.1053 3.32933C8.71688 3.32933 7.54355 3.64711 6.58533 4.28266C5.63689 4.90844 4.92311 5.79822 4.444 6.95199C3.96489 8.09599 3.72044 9.44533 3.71066 11C3.71066 12.5547 3.95022 13.9089 4.42933 15.0627C4.90844 16.2067 5.62711 17.0964 6.58533 17.732C7.54355 18.3578 8.71688 18.6707 10.1053 18.6707C11.6502 18.6707 12.9213 18.2893 13.9187 17.5267C14.916 16.764 15.6249 15.6787 16.0453 14.2707L19.6093 15.2533C19.1693 16.6418 18.5093 17.8444 17.6293 18.8613C16.7591 19.8684 15.6835 20.6458 14.4027 21.1933C13.1315 21.7311 11.6991 22 10.1053 22Z" fill="white"/>
</svg>
